#!OML:ASF E:\emotionWalksFemale\Project 1\Capture day 1\Session 1\Female1.ASF
:FULLY-SPECIFIED
:DEGREES
316
root 6.99595 15.1382 41.2964 179.466 6.80377 -180.598
lowerback 9.3817 0.769956 -0.136317
upperback -2.58165 1.01824 0.0263913
thorax -8.00592 0.504974 -0.059984
lowerneck -6.11117 -4.27511 -6.38578
upperneck 15.8121 -5.64961 7.30762
head 6.17885 -2.34962 2.98921
rclavicle 7.3364e-015 -1.2921e-015
rhumerus -41.8364 2.87868 -85.931
rradius 34.4378
rwrist 19.0259
rhand -10.4985 -55.3595
rfingers 7.12502
rthumb 15.5035 -444.758
lclavicle 7.3364e-015 -1.2921e-015
lhumerus -41.4506 -1.2052 86.1327
lradius 35.0911
lwrist -15.2905
lhand 1.69401 -32.4179
lfingers 7.12502
lthumb 27.2119 -4.36053
rfemur -26.6385 5.25578 20.593
rtibia 51.9846
rfoot -18.0068 -22.3555
rtoes 10.4063
lfemur -0.680039 -19.5461 -33.1781
ltibia 19.9158
lfoot -22.1155 19.2392
ltoes -13.2186
317
root 6.99278 15.1382 41.2664 179.432 6.71966 -180.642
lowerback 9.55598 0.758674 -0.125435
upperback -2.69496 0.999913 -0.0442059
thorax -8.22746 0.493464 -0.141482
lowerneck -6.10848 -4.30023 -6.32635
upperneck 15.8949 -5.70754 7.46192
head 6.21105 -2.35592 3.02542
rclavicle -4.34531e-015 -2.38542e-015
rhumerus -42.1409 2.37012 -85.7091
rradius 34.4879
rwrist 19.7135
rhand -8.88353 -56.9253
rfingers 7.12502
rthumb 17.0586 -446.196
lclavicle -4.34531e-015 -2.38542e-015
lhumerus -41.6909 -1.33893 86.1292
lradius 35.2739
lwrist -15.0913
lhand 1.8933 -32.2888
lfingers 7.12502
lthumb 27.4025 -4.26142
rfemur -26.7735 5.19765 20.7907
rtibia 51.3471
rfoot -18.2289 -22.6647
rtoes 9.3207
lfemur -0.526071 -19.5945 -33.309
ltibia 19.958
lfoot -22.2774 19.1486
ltoes -12.6251
318
root 6.99073 15.1345 41.2362 179.406 6.80746 -180.634
lowerback 9.61851 0.797019 -0.107665
upperback -2.73711 1.05282 -0.0572675
thorax -8.30866 0.517887 -0.175487
lowerneck -6.06895 -4.3243 -6.18757
upperneck 15.8346 -5.74242 7.35664
head 6.1807 -2.37501 2.96598
rclavicle 3.34517e-015 2.78299e-015
rhumerus -42.381 1.89402 -85.3602
rradius 34.4485
rwrist 20.3067
rhand -7.22757 -59.4454
rfingers 7.12502
rthumb 18.6519 -448.571
lclavicle 3.34517e-015 2.78299e-015
lhumerus -41.7684 -1.3195 86.1167
lradius 35.3706
lwrist -15.1246
lhand 2.12093 -32.5466
lfingers 7.12502
lthumb 27.6202 -4.55391
rfemur -26.9233 5.37932 21.0462
rtibia 50.6645
rfoot -18.5753 -22.8375
rtoes 9.44538
lfemur -0.332167 -19.3991 -33.3585
ltibia 19.875
lfoot -22.3185 19.109
ltoes -13.4166
319
root 6.98997 15.1277 41.2065 179.297 6.97261 -180.68
lowerback 9.64344 0.811338 -0.209728
upperback -2.7188 1.06176 -0.0156575
thorax -8.30614 0.528501 -0.075669
lowerneck -5.9254 -4.27251 -6.15326
upperneck 15.6398 -5.65897 7.1909
head 6.08279 -2.35578 2.91467
rclavicle 3.09048e-014 2.48481e-015
rhumerus -42.534 1.69991 -85.0718
rradius 34.0269
rwrist 20.1766
rhand -9.72351 -57.3861
rfingers 7.12502
rthumb 16.2499 -446.725
lclavicle 3.09048e-014 2.48481e-015
lhumerus -41.7087 -1.26587 86.2448
lradius 35.27
lwrist -14.9648
lhand 2.28259 -32.2453
lfingers 7.12502
lthumb 27.7748 -4.27742
rfemur -26.9936 5.54982 21.2511
rtibia 49.9425
rfoot -18.6396 -22.8471
rtoes 9.05246
lfemur -0.0498584 -19.1986 -33.5035
ltibia 19.7803
lfoot -22.2805 19.2109
ltoes -14.2096
320
root 6.98742 15.1239 41.1788 179.264 6.90638 -180.758
lowerback 9.53585 0.747126 -0.288145
upperback -2.6651 0.965908 -0.0130227
thorax -8.18696 0.485929 -0.0107079
lowerneck -5.90916 -4.21131 -6.23092
upperneck 15.5386 -5.57762 7.24191
head 6.04583 -2.32222 2.94971
rclavicle -1.43653e-014 3.37934e-015
rhumerus -42.5866 1.52972 -84.9357
rradius 33.5512
rwrist 19.6172
rhand -8.81671 -58.454
rfingers 7.12502
rthumb 17.1229 -447.719
lclavicle -1.43653e-014 3.37934e-015
lhumerus -41.594 -1.35807 86.4024
lradius 35.2563
lwrist -14.7174
lhand 2.18859 -31.8044
lfingers 7.12502
lthumb 27.6849 -3.82204
rfemur -27.1075 5.52533 21.3898
rtibia 49.1645
rfoot -18.6025 -22.8785
rtoes 8.64673
lfemur 0.129608 -19.1629 -33.656
ltibia 19.7069
lfoot -22.2504 19.3459
ltoes -15.1902
321
root 6.98505 15.1194 41.1498 179.334 6.81462 -180.833
lowerback 9.51872 0.688145 -0.322218
upperback -2.73266 0.881028 -0.0472328
thorax -8.24954 0.44581 -0.0141498
lowerneck -5.90864 -4.1956 -6.39848
upperneck 15.5148 -5.56665 7.44369
head 6.04754 -2.31228 3.0429
rclavicle -5.87968e-015 2.98177e-016
rhumerus -42.7174 1.17765 -84.759
rradius 33.2443
rwrist 19.5497
rhand -7.19162 -59.3767
rfingers 7.12502
rthumb 18.6865 -448.499
lclavicle -5.87968e-015 2.98177e-016
lhumerus -41.7394 -1.50269 86.5153
lradius 35.3688
lwrist -14.9432
lhand 1.47636 -31.6244
lfingers 7.12502
lthumb 27.0037 -3.5346
rfemur -27.308 5.53659 21.5051
rtibia 48.3114
rfoot -18.566 -23.2017
rtoes 9.30756
lfemur 0.229478 -19.2626 -33.7862
ltibia 19.6296
lfoot -22.2934 19.453
ltoes -15.765
322
root 6.98344 15.1157 41.1171 179.38 6.89311 -180.889
lowerback 9.43066 0.671274 -0.450107
upperback -2.73033 0.845708 -0.010805
thorax -8.19834 0.436299 0.103317
lowerneck -5.92221 -4.17013 -6.4337
upperneck 15.3316 -5.53018 7.40986
head 5.98973 -2.30844 3.03879
rclavicle -4.27076e-015 9.93923e-017
rhumerus -42.6716 0.858123 -84.4188
rradius 32.8669
rwrist 19.9201
rhand -8.06289 -58.1827
rfingers 7.12502
rthumb 17.8483 -447.384
lclavicle -4.27076e-015 9.93923e-017
lhumerus -41.7131 -1.51997 86.6548
lradius 35.3618
lwrist -14.9944
lhand 0.898722 -31.4949
lfingers 7.12502
lthumb 26.4509 -3.32072
rfemur -27.4674 5.58073 21.6474
rtibia 47.3802
rfoot -18.1927 -23.6537
rtoes 8.51105
lfemur 0.369664 -19.4432 -33.94
ltibia 19.5838
lfoot -22.5122 19.4036
ltoes -13.7699
323
root 6.9813 15.1156 41.0858 179.472 6.93282 -180.844
lowerback 9.35279 0.6473 -0.463889
upperback -2.78634 0.81765 0.0454077
thorax -8.21442 0.425518 0.175563
lowerneck -5.89655 -4.137 -6.22759
upperneck 15.2809 -5.46598 7.08807
head 5.95059 -2.293 2.90656
rclavicle -2.57799e-014 -2.98177e-015
rhumerus -42.7437 0.69429 -84.2084
rradius 32.7735
rwrist 20.6923
rhand -9.45671 -56.9465
rfingers 7.12502
rthumb 16.5068 -446.264
lclavicle -2.57799e-014 -2.98177e-015
lhumerus -41.7646 -1.43291 86.699
lradius 35.5953
lwrist -14.3367
lhand 1.82527 -31.1866
lfingers 7.12502
lthumb 27.3375 -3.14898
rfemur -27.6288 5.74578 21.85
rtibia 46.387
rfoot -18.0232 -23.6941
rtoes 6.74852
lfemur 0.441687 -19.5573 -33.945
ltibia 19.5127
lfoot -22.7932 19.2074
ltoes -12.5646
324
root 6.97967 15.1153 41.0574 179.525 6.83193 -180.75
lowerback 9.21828 0.576207 -0.41216
upperback -2.71972 0.734065 0.110791
thorax -8.06411 0.383678 0.231046
lowerneck -6.06467 -4.09105 -6.12812
upperneck 15.2541 -5.39666 6.94628
head 5.95999 -2.26622 2.84682
rclavicle 1.32068e-014 -9.93923e-017
rhumerus -42.6739 0.698529 -84.1696
rradius 32.95
rwrist 21.4688
rhand -11.0087 -55.3978
rfingers 7.12502
rthumb 15.0121 -444.834
lclavicle 1.32068e-014 -9.93923e-017
lhumerus -41.7857 -1.43312 86.8652
lradius 35.767
lwrist -14.8056
lhand 0.837717 -30.7492
lfingers 7.12502
lthumb 26.3925 -2.56616
rfemur -27.7184 6.02436 22.0837
rtibia 45.3755
rfoot -18.5117 -23.5121
rtoes 7.46084
lfemur 0.57887 -19.5093 -33.8618
ltibia 19.3437
lfoot -22.5759 19.1368
ltoes -12.9325
325
root 6.97887 15.1143 41.026 179.524 6.71668 -180.81
lowerback 9.30477 0.513778 -0.498761
upperback -2.79061 0.64278 0.144328
thorax -8.19134 0.345113 0.328754
lowerneck -5.96467 -4.05393 -6.33036
upperneck 15.1394 -5.34852 7.10009
head 5.91277 -2.24824 2.93405
rclavicle -3.50979e-015 -5.56597e-015
rhumerus -42.8887 0.564692 -84.0029
rradius 32.6678
rwrist 21.1896
rhand -13.354 -52.9487
rfingers 7.12502
rthumb 12.7519 -442.539
lclavicle -3.50979e-015 -5.56597e-015
lhumerus -41.93 -1.13907 86.8196
lradius 35.9182
lwrist -14.7232
lhand 1.75012 -31.0074
lfingers 7.12502
lthumb 27.2656 -2.95839
rfemur -27.7552 6.14565 22.1914
rtibia 44.3397
rfoot -18.9254 -23.5335
rtoes 9.44693
lfemur 0.767118 -19.4759 -33.9654
ltibia 19.2254
lfoot -22.4748 19.3797
ltoes -14.0984
326
root 6.98025 15.1113 40.9891 179.522 6.73438 -181.014
lowerback 9.28797 0.518247 -0.763536
upperback -2.87293 0.616307 0.135246
thorax -8.27317 0.346492 0.472179
lowerneck -5.75749 -4.01752 -6.50153
upperneck 15.0043 -5.30162 7.22639
head 5.839 -2.23182 3.00892
rclavicle -1.21134e-015 -1.98785e-016
rhumerus -43.0869 0.241295 -83.6057
rradius 32.3515
rwrist 21.7181
rhand -11.9005 -53.0181
rfingers 7.12502
rthumb 14.1529 -442.516
lclavicle -1.21134e-015 -1.98785e-016
lhumerus -42.0492 -1.11404 86.931
lradius 35.9007
lwrist -14.9042
lhand 1.52963 -31.015
lfingers 7.12502
lthumb 27.0547 -2.93305
rfemur -27.7931 6.29341 22.1245
rtibia 43.2654
rfoot -19.0898 -23.5982
rtoes 10.2727
lfemur 0.964101 -19.418 -34.2415
ltibia 19.1352
lfoot -22.678 19.6058
ltoes -13.9696
327
root 6.98189 15.105 40.9635 179.62 6.83251 -181.075
lowerback 9.34871 0.552074 -0.934008
upperback -2.95587 0.64197 0.151775
thorax -8.40089 0.369541 0.580472
lowerneck -5.88445 -3.98312 -6.52286
upperneck 15.0956 -5.25762 7.28957
head 5.88842 -2.20273 3.03462
rclavicle -7.72775e-015 -3.97569e-016
rhumerus -43.2388 0.498191 -83.7617
rradius 32.8288
rwrist 22.3745
rhand -6.37018 -57.244
rfingers 7.12502
rthumb 19.4765 -446.289
lclavicle -7.72775e-015 -3.97569e-016
lhumerus -41.9224 -1.00494 86.9168
lradius 35.7212
lwrist -15.1436
lhand 2.07544 -31.2392
lfingers 7.12502
lthumb 27.5767 -3.23955
rfemur -27.9685 6.66434 22.1644
rtibia 42.1534
rfoot -19.2501 -23.4445
rtoes 10.7377
lfemur 0.993861 -19.2209 -34.2757
ltibia 19.0036
lfoot -22.822 19.5421
ltoes -14.2475
328
root 6.98637 15.0999 40.9276 179.52 6.79487 -181.057
lowerback 9.22867 0.522582 -1.02694
upperback -2.81407 0.595095 0.211482
thorax -8.17901 0.350994 0.70537
lowerneck -6.11454 -3.97729 -6.55732
upperneck 15.1503 -5.23959 7.24879
head 5.94414 -2.19762 3.02507
rclavicle -1.72943e-014 -2.18663e-015
rhumerus -43.1506 0.363332 -83.6442
rradius 32.7006
rwrist 22.4836
rhand -9.62075 -57.3136
rfingers 7.12502
rthumb 16.3488 -446.645
lclavicle -1.72943e-014 -2.18663e-015
lhumerus -41.653 -0.918765 86.9931
lradius 35.6771
lwrist -15.0478
lhand 2.80809 -31.2794
lfingers 7.12502
lthumb 28.2772 -3.39362
rfemur -27.802 6.93523 22.3368
rtibia 41.002
rfoot -19.3093 -23.4249
rtoes 9.83148
lfemur 1.28008 -19.0324 -34.3008
ltibia 18.8951
lfoot -22.8673 19.3488
ltoes -15.0976
329
root 6.98763 15.0985 40.888 179.475 6.64613 -181.196
lowerback 9.22876 0.416964 -1.18577
upperback -2.87181 0.437602 0.24841
thorax -8.23982 0.284483 0.859182
lowerneck -6.02235 -3.92607 -6.71113
upperneck 15.1319 -5.14604 7.17748
head 5.91802 -2.16916 3.03616
rclavicle -7.5973e-015 -6.55989e-015
rhumerus -43.3103 0.284335 -83.3986
rradius 31.9356
rwrist 21.591
rhand -13.0037 -55.9987
rfingers 7.12502
rthumb 13.0896 -445.568
lclavicle -7.5973e-015 -6.55989e-015
lhumerus -41.8177 -0.738018 87.1134
lradius 35.7687
lwrist -14.8769
lhand 2.82353 -31.1146
lfingers 7.12502
lthumb 28.2919 -3.23127
rfemur -27.6923 7.04867 22.3135
rtibia 39.8558
rfoot -19.2809 -23.7179
rtoes 8.44388
lfemur 1.50241 -18.8676 -34.484
ltibia 18.8164
lfoot -22.916 19.2653
ltoes -16.1427
